<svg width="64" height="64" viewBox="0 0 64 64" fill="none" xmlns="http://www.w3.org/2000/svg">
  <rect width="64" height="64" rx="12" fill="#0d1a12"/>
  <rect x="18" y="18" width="28" height="28" rx="4" fill="none" stroke="#3ecf8e" stroke-width="1.8"/>
  <rect x="23" y="23" width="18" height="18" rx="2" fill="#3ecf8e" opacity="0.12"/>
  <line x1="10" y1="24" x2="18" y2="24" stroke="#3ecf8e" stroke-width="1.5" stroke-linecap="round"/>
  <line x1="10" y1="32" x2="18" y2="32" stroke="#3ecf8e" stroke-width="1.5" stroke-linecap="round"/>
  <line x1="10" y1="40" x2="18" y2="40" stroke="#3ecf8e" stroke-width="1.5" stroke-linecap="round"/>
  <line x1="46" y1="24" x2="54" y2="24" stroke="#3ecf8e" stroke-width="1.5" stroke-linecap="round"/>
  <line x1="46" y1="32" x2="54" y2="32" stroke="#3ecf8e" stroke-width="1.5" stroke-linecap="round"/>
  <line x1="46" y1="40" x2="54" y2="40" stroke="#3ecf8e" stroke-width="1.5" stroke-linecap="round"/>
  <line x1="24" y1="10" x2="24" y2="18" stroke="#3ecf8e" stroke-width="1.5" stroke-linecap="round"/>
  <line x1="32" y1="10" x2="32" y2="18" stroke="#3ecf8e" stroke-width="1.5" stroke-linecap="round"/>
  <line x1="40" y1="10" x2="40" y2="18" stroke="#3ecf8e" stroke-width="1.5" stroke-linecap="round"/>
  <line x1="24" y1="46" x2="24" y2="54" stroke="#3ecf8e" stroke-width="1.5" stroke-linecap="round"/>
  <line x1="32" y1="46" x2="32" y2="54" stroke="#3ecf8e" stroke-width="1.5" stroke-linecap="round"/>
  <line x1="40" y1="46" x2="40" y2="54" stroke="#3ecf8e" stroke-width="1.5" stroke-linecap="round"/>
  <text x="32" y="36" text-anchor="middle" font-family="'Helvetica Neue',Helvetica,Arial,sans-serif" font-size="11" font-weight="500" fill="#3ecf8e">AI</text>
</svg>
